{
	"asset":{
		"generator":"Khronos glTF Blender I/O v5.1.19",
		"version":"2.0"
	},
	"scene":0,
	"scenes":[
		{
			"name":"Scene",
			"nodes":[
				0
			]
		}
	],
	"nodes":[
		{
			"mesh":0,
			"name":"Plane.001",
			"rotation":[
				0,
				0,
				-0.7071068286895752,
				0.7071068286895752
			]
		}
	],
	"meshes":[
		{
			"name":"Plane.002",
			"primitives":[
				{
					"attributes":{
						"POSITION":0,
						"NORMAL":1,
						"TEXCOORD_0":2
					},
					"indices":3
				}
			]
		}
	],
	"accessors":[
		{
			"bufferView":0,
			"componentType":5126,
			"count":532,
			"max":[
				1.5974668264389038,
				0.07656171917915344,
				1.0705612897872925
			],
			"min":[
				-1.5974667072296143,
				-0.15592007339000702,
				-1.0705612897872925
			],
			"type":"VEC3"
		},
		{
			"bufferView":1,
			"componentType":5126,
			"count":532,
			"type":"VEC3"
		},
		{
			"bufferView":2,
			"componentType":5126,
			"count":532,
			"type":"VEC2"
		},
		{
			"bufferView":3,
			"componentType":5123,
			"count":840,
			"type":"SCALAR"
		}
	],
	"bufferViews":[
		{
			"buffer":0,
			"byteLength":6384,
			"byteOffset":0,
			"target":34962
		},
		{
			"buffer":0,
			"byteLength":6384,
			"byteOffset":6384,
			"target":34962
		},
		{
			"buffer":0,
			"byteLength":4256,
			"byteOffset":12768,
			"target":34962
		},
		{
			"buffer":0,
			"byteLength":1680,
			"byteOffset":17024,
			"target":34963
		}
	],
	"buffers":[
		{
			"byteLength":18704,
			"uri":"test2.bin"
		}
	]
}
