{
	"asset":{
		"generator":"Khronos glTF Blender I/O v5.1.20",
		"version":"2.0"
	},
	"extensionsUsed":[
		"KHR_materials_specular"
	],
	"scene":0,
	"scenes":[
		{
			"name":"Scene",
			"nodes":[
				0
			]
		}
	],
	"nodes":[
		{
			"mesh":0,
			"name":"Cube"
		}
	],
	"materials":[
		{
			"doubleSided":true,
			"name":"Material.001",
			"normalTexture":{
				"index":0
			},
			"pbrMetallicRoughness":{
				"baseColorTexture":{
					"index":1
				},
				"metallicRoughnessTexture":{
					"index":2
				}
			}
		},
		{
			"doubleSided":true,
			"extensions":{
				"KHR_materials_specular":{
					"specularFactor":0.8999999761581421,
					"specularColorFactor":[
						0.3137255012989044,
						0.3137255012989044,
						0.3137255012989044
					]
				}
			},
			"name":"Rubber",
			"pbrMetallicRoughness":{
				"baseColorFactor":[
					0.003921568859368563,
					0.003921568859368563,
					0.003921568859368563,
					1
				],
				"metallicFactor":0,
				"roughnessFactor":0.7702603340148926
			}
		}
	],
	"meshes":[
		{
			"name":"Plane.001",
			"primitives":[
				{
					"attributes":{
						"POSITION":0,
						"NORMAL":1,
						"TEXCOORD_0":2,
						"TEXCOORD_1":3
					},
					"indices":4,
					"material":0
				},
				{
					"attributes":{
						"POSITION":5,
						"NORMAL":6,
						"TEXCOORD_0":7,
						"TEXCOORD_1":8
					},
					"indices":9,
					"material":1
				},
				{
					"attributes":{
						"POSITION":10,
						"NORMAL":11,
						"TEXCOORD_0":12,
						"TEXCOORD_1":13
					},
					"indices":14
				}
			]
		}
	],
	"textures":[
		{
			"sampler":0,
			"source":0
		},
		{
			"sampler":0,
			"source":1
		},
		{
			"sampler":0,
			"source":2
		}
	],
	"images":[
		{
			"mimeType":"image/png",
			"name":"dark-wood-stain_normal-ogl",
			"uri":"test4/dark-wood-stain_normal-ogl.png"
		},
		{
			"mimeType":"image/png",
			"name":"dark-wood-stain_albedo",
			"uri":"test4/dark-wood-stain_albedo.png"
		},
		{
			"mimeType":"image/png",
			"name":"dark-wood-stain_metallic-dark-wood-stain_roughness",
			"uri":"test4/dark-wood-stain_metallic-dark-wood-stain_roughness.png"
		}
	],
	"accessors":[
		{
			"bufferView":0,
			"componentType":5126,
			"count":2186,
			"max":[
				1.355828046798706,
				1.0605369806289673,
				1.134538173675537
			],
			"min":[
				-0.239078089594841,
				-1.7183948755264282,
				-1.1461482048034668
			],
			"type":"VEC3"
		},
		{
			"bufferView":1,
			"componentType":5126,
			"count":2186,
			"type":"VEC3"
		},
		{
			"bufferView":2,
			"componentType":5126,
			"count":2186,
			"type":"VEC2"
		},
		{
			"bufferView":3,
			"componentType":5126,
			"count":2186,
			"type":"VEC2"
		},
		{
			"bufferView":4,
			"componentType":5123,
			"count":4806,
			"type":"SCALAR"
		},
		{
			"bufferView":5,
			"componentType":5126,
			"count":444,
			"max":[
				0.09893336892127991,
				0.4014103412628174,
				0.2439994513988495
			],
			"min":[
				-0.07933789491653442,
				-0.8281590938568115,
				-0.23613835871219635
			],
			"type":"VEC3"
		},
		{
			"bufferView":6,
			"componentType":5126,
			"count":444,
			"type":"VEC3"
		},
		{
			"bufferView":7,
			"componentType":5126,
			"count":444,
			"type":"VEC2"
		},
		{
			"bufferView":8,
			"componentType":5126,
			"count":444,
			"type":"VEC2"
		},
		{
			"bufferView":9,
			"componentType":5123,
			"count":768,
			"type":"SCALAR"
		},
		{
			"bufferView":10,
			"componentType":5126,
			"count":387,
			"max":[
				1.081307291984558,
				-0.37293440103530884,
				0.9076316952705383
			],
			"min":[
				0.8312040567398071,
				-1.0308723449707031,
				0.7881179451942444
			],
			"type":"VEC3"
		},
		{
			"bufferView":11,
			"componentType":5126,
			"count":387,
			"type":"VEC3"
		},
		{
			"bufferView":12,
			"componentType":5126,
			"count":387,
			"type":"VEC2"
		},
		{
			"bufferView":13,
			"componentType":5126,
			"count":387,
			"type":"VEC2"
		},
		{
			"bufferView":14,
			"componentType":5123,
			"count":2136,
			"type":"SCALAR"
		}
	],
	"bufferViews":[
		{
			"buffer":0,
			"byteLength":26232,
			"byteOffset":0,
			"target":34962
		},
		{
			"buffer":0,
			"byteLength":26232,
			"byteOffset":26232,
			"target":34962
		},
		{
			"buffer":0,
			"byteLength":17488,
			"byteOffset":52464,
			"target":34962
		},
		{
			"buffer":0,
			"byteLength":17488,
			"byteOffset":69952,
			"target":34962
		},
		{
			"buffer":0,
			"byteLength":9612,
			"byteOffset":87440,
			"target":34963
		},
		{
			"buffer":0,
			"byteLength":5328,
			"byteOffset":97052,
			"target":34962
		},
		{
			"buffer":0,
			"byteLength":5328,
			"byteOffset":102380,
			"target":34962
		},
		{
			"buffer":0,
			"byteLength":3552,
			"byteOffset":107708,
			"target":34962
		},
		{
			"buffer":0,
			"byteLength":3552,
			"byteOffset":111260,
			"target":34962
		},
		{
			"buffer":0,
			"byteLength":1536,
			"byteOffset":114812,
			"target":34963
		},
		{
			"buffer":0,
			"byteLength":4644,
			"byteOffset":116348,
			"target":34962
		},
		{
			"buffer":0,
			"byteLength":4644,
			"byteOffset":120992,
			"target":34962
		},
		{
			"buffer":0,
			"byteLength":3096,
			"byteOffset":125636,
			"target":34962
		},
		{
			"buffer":0,
			"byteLength":3096,
			"byteOffset":128732,
			"target":34962
		},
		{
			"buffer":0,
			"byteLength":4272,
			"byteOffset":131828,
			"target":34963
		}
	],
	"samplers":[
		{
			"magFilter":9729,
			"minFilter":9987
		}
	],
	"buffers":[
		{
			"byteLength":136100,
			"uri":"test4.bin"
		}
	]
}
